<?xml version="1.0" standalone="no"?>
<!DOCTYPE svg PUBLIC "-//W3C//DTD SVG 20010904//EN"
 "http://www.w3.org/TR/2001/REC-SVG-20010904/DTD/svg10.dtd">
<svg version="1.0" xmlns="http://www.w3.org/2000/svg"
 width="512.000000pt" height="512.000000pt" viewBox="0 0 512.000000 512.000000"
 preserveAspectRatio="xMidYMid meet">

<g transform="translate(0.000000,512.000000) scale(0.100000,-0.100000)"
fill="#000000" stroke="none">
<path d="M922 3605 c-121 -61 -202 -178 -210 -303 l-5 -65 44 7 c157 25 288
168 305 334 l7 62 -35 0 c-20 0 -65 -15 -106 -35z"/>
<path d="M1710 2715 l0 -806 123 3 122 3 3 271 2 272 228 4 c178 4 239 9 282
23 272 85 417 346 355 638 -40 191 -194 347 -383 386 -33 7 -183 11 -392 11
l-340 0 0 -805z m671 575 c79 -24 126 -62 164 -131 24 -45 30 -69 33 -140 6
-125 -14 -189 -82 -255 -78 -76 -114 -86 -343 -91 l-193 -5 0 321 0 321 179 0
c150 0 189 -3 242 -20z"/>
<path d="M360 3209 c-225 -44 -372 -272 -357 -554 14 -244 140 -532 298 -680
92 -86 142 -93 298 -39 124 43 186 43 291 0 175 -72 268 -33 405 173 54 82
125 224 125 251 0 4 -14 13 -31 21 -51 20 -137 112 -167 176 -23 51 -27 70
-27 158 0 93 2 105 33 167 21 43 51 84 87 116 30 28 55 55 55 60 0 6 -25 33
-55 60 -71 65 -144 93 -255 100 -80 4 -93 1 -213 -38 l-127 -43 -78 28 c-152
53 -197 61 -282 44z"/>
<path d="M3345 3104 c-210 -33 -360 -159 -389 -326 l-7 -38 115 0 114 0 12 35
c15 47 89 110 145 124 92 23 194 9 253 -36 51 -38 72 -90 72 -178 0 -71 -1
-75 -22 -75 -90 0 -366 -23 -423 -35 -134 -29 -230 -92 -275 -181 -35 -70 -40
-196 -11 -275 83 -221 399 -298 616 -149 25 17 64 54 85 82 l40 50 0 -96 0
-96 115 0 116 0 -3 458 -3 457 -27 57 c-46 99 -138 171 -261 204 -55 15 -212
25 -262 18z m315 -736 c0 -149 -83 -247 -233 -278 -140 -28 -260 32 -274 138
-7 55 2 85 38 126 50 57 153 79 402 85 l67 1 0 -72z"/>
<path d="M4010 3082 c0 -5 95 -271 210 -591 l211 -583 -21 -64 c-43 -128 -88
-165 -211 -172 l-79 -5 0 -92 0 -92 54 -7 c74 -8 199 9 260 37 76 35 141 107
191 212 24 50 143 370 264 711 121 342 223 629 227 638 6 15 -6 16 -122 14
l-129 -3 -145 -465 c-80 -256 -148 -471 -151 -478 -2 -8 -72 203 -154 467
l-149 481 -128 0 c-70 0 -128 -4 -128 -8z"/>
</g>
</svg>
